<svg xmlns="http://www.w3.org/2000/svg" viewBox="0 0 135 162.49"><defs><style>.a{fill:#f8b717;}</style></defs><path class="a" d="M84.38,156.21C78.54,161.74,66,163.47,58.61,162l.42-2-14.41-4.21,7.14-5.5c-9.15,1.18-14.55-2.2-18.59-8.66l6.52-2.19C32,137,26.62,133.57,23,128.11L37.59,123c-24.14-3.11-35-13.12-31.84-29.62,4,2,8,4.36,12.23,6.06s8.67,2.77,13,4.11l.39-1a30.43,30.43,0,0,1-3.86-2c-6.72-4.71-14-8.82-19.91-14.41-8.41-8-9.86-21.29-4.37-29,9.18,12.08,21.66,19.7,34,26.5-7.41-7.21-15.83-14.26-22.76-22.55A66.71,66.71,0,0,1,3,40.72a22.55,22.55,0,0,1-1.19-7.61c.11-9.45,5.67-18.65,12.41-21.22,3.68,7.17,6.55,14.75,11,21.22l.64.92C33.89,45.27,43.1,55.7,51.87,66.45c3.27,4,5.25,5,8.46,9a27.89,27.89,0,0,1,4,7.54,79.87,79.87,0,0,1,.89,17.89c-.32,5.26-.94,10.49-1.39,15.76-.47,5.53-.78,11.22.34,16.72A26.91,26.91,0,0,0,68.11,143l.06.12a8.35,8.35,0,0,0,1.45,2,29.13,29.13,0,0,0,4,4.11A51,51,0,0,0,84.38,156.21Z"/><path class="a" d="M131.68,110.45c1,3.12-1.76,4.8-3.49,6.84-2,2.53-2.65.22-4.88,2.17.68-1.8-.82-2.16-1.9-2.8-1.51-.89-3.35-2.1-5.11-2,1.19,1.37,2.31,2.72,3.5,4,.76.62,1.67,0,2.57-.13-1.31,1.37-1.46,3-1.63,4.74a5.12,5.12,0,0,1-2.9,4.28c-3.94,2.2-5.66-3.36-7.88-5.6-2.4-3.08-4.66-6.54-8.33-8.24-8.25-4.11-7-12.32-2.94-19-5.93,3.9-6.4,11.26-1.44,18.54-19.6,11.12-25,23.22-11.17,41.53a58.6,58.6,0,0,1-9-7.3,25.12,25.12,0,0,1-7.57-14.94c-.78-6.68.54-13.56,1.46-20.33A140.26,140.26,0,0,0,72.6,95.87,77.75,77.75,0,0,0,72,84.77c-.17-1.31-.36-2.62-.6-3.93a19.88,19.88,0,0,1,2.25-7.24c2-3.26,5.12-4.63,8.73-5.23A3.07,3.07,0,0,0,84,67.46q3.11-3.37,6.11-6.85c.63-.73,1.18-.64,1.9-.2,2.39,1.39,3.32,3.51,3.58,6.22,1.58-3.18,3-6.13,5.41-8.58a.09.09,0,0,1,.13,0c1.93,3,2.85,6.09,1.8,9.4,7.42,3.68,20.45,9.28,22.14,18.6-3.11-.5-4.33-1.7-12.88-6.27,2,1.4,7.42,5.09,9.45,6.38.91.39,2.4,0,3.43-.11,2.3,5.72,5.61,10.76,8.51,16.15C135,105.2,136.57,110,131.68,110.45Z"/><polygon class="a" points="67.5 26.62 57.07 32.1 59.06 20.49 50.62 12.26 62.28 10.57 67.5 0 72.72 10.57 84.38 12.26 75.94 20.49 77.93 32.1 67.5 26.62"/><polygon class="a" points="102.99 41.09 95.92 44.8 97.27 36.93 91.55 31.36 99.46 30.21 102.99 23.05 106.53 30.21 114.43 31.36 108.71 36.93 110.06 44.8 102.99 41.09"/><polygon class="a" points="127.86 60.44 123.44 62.76 124.28 57.84 120.71 54.36 125.65 53.64 127.86 49.17 130.06 53.64 135 54.36 131.43 57.84 132.27 62.76 127.86 60.44"/></svg>